<svg width="68" height="52" viewBox="0 0 68 52" fill="none" xmlns="http://www.w3.org/2000/svg">
<path d="M66.9655 39.5177C66.3765 37.3527 65.3455 36.6157 64.1505 35.7607C63.5505 35.3317 63.2365 34.7177 63.2645 34.0307C63.3065 33.0237 64.0375 32.0267 65.2385 31.3117C66.3045 30.7307 66.8055 29.4977 66.4045 28.4437C66.0785 27.5897 65.1055 26.8257 63.3635 27.2297C61.7865 27.5997 60.3865 28.9957 59.5225 31.0577C58.7485 32.9047 58.3845 35.4527 59.3175 36.9847C59.9075 37.9537 60.2225 38.3917 62.1335 39.5407C62.3955 39.6977 62.7415 39.9857 62.7265 40.6677C62.7035 41.6987 61.8775 42.9047 61.1575 43.2937C61.1385 43.3037 61.1105 43.3177 61.0755 43.3337C59.9505 37.2087 52.8635 28.8907 47.9945 26.8247C47.9485 26.7697 47.9055 26.7117 47.8655 26.6467C47.7865 26.5187 47.6785 26.4217 47.5595 26.3447C47.5755 25.5457 47.7585 24.6907 47.9195 23.9797C47.9695 23.7607 48.0155 23.5577 48.0515 23.3757C48.3675 21.7937 48.0015 20.8207 47.3375 19.0547L47.1645 18.5957C47.1435 18.5227 47.1135 18.3807 47.0725 18.1927C46.5605 15.8407 45.9275 13.5307 44.3285 13.3687C42.8445 13.2327 41.5725 15.3367 40.7015 17.3727C39.4095 17.4657 36.9655 17.8767 36.4885 19.6537C36.2065 20.7057 35.2745 21.4637 34.7185 21.9177C34.3335 22.2307 34.0785 22.4387 33.9705 22.8217C33.7095 23.7647 33.8905 25.5197 34.6425 26.8237C35.1295 27.6667 35.8035 28.2197 36.5915 28.4257C37.0755 28.5517 37.6695 29.4017 38.0345 30.4907C38.0885 30.6517 38.1865 30.7807 38.3015 30.8897C38.3035 30.8987 38.3005 30.9067 38.3015 30.9157C39.0495 34.4397 38.8105 42.7847 38.7315 45.5267C38.7125 46.1717 38.7045 46.5807 38.7095 46.6567C38.7165 46.7787 38.6795 46.9147 38.6315 47.0867C38.5255 47.4737 38.3475 48.1187 38.7735 48.8227C39.7945 50.5037 41.8605 50.1267 42.5195 50.0097C42.7485 49.9797 43.7125 50.1317 44.5545 50.2587C46.4015 50.5367 49.1275 50.9467 51.9395 50.9467C54.2075 50.9467 56.5305 50.6787 58.4905 49.8597C58.5355 49.8397 58.5795 49.8187 58.6205 49.7937C59.0765 49.5197 59.4845 49.1847 59.8375 48.7947C60.3445 48.7527 60.7505 48.6627 60.8685 48.6337C65.3925 47.1987 67.8185 42.6397 66.9655 39.5177ZM37.0955 26.4887C36.7695 26.4037 36.5245 26.0797 36.3755 25.8227C35.9385 25.0667 35.8235 24.0627 35.8655 23.5607C35.9005 23.5327 35.9395 23.5007 35.9815 23.4667C36.6765 22.9007 37.9705 21.8457 38.4195 20.1697C38.5295 19.7577 39.9975 19.3487 41.3825 19.3457C41.7925 19.3447 42.1605 19.0937 42.3115 18.7127C42.8555 17.3377 43.6505 15.9297 44.1205 15.4717C44.3375 15.7887 44.6795 16.5957 45.1185 18.6167C45.1895 18.9477 45.2485 19.1797 45.2785 19.2617L45.4655 19.7587C46.0695 21.3627 46.2945 21.9627 46.0905 22.9827C46.0575 23.1497 46.0145 23.3367 45.9685 23.5397C45.7955 24.3067 45.5695 25.3077 45.5485 26.3197C43.5835 27.4947 41.3515 28.3607 39.5655 28.9427C39.1165 27.9897 38.3265 26.8087 37.0955 26.4887ZM60.3485 46.7037C60.3435 46.7047 59.8495 46.8117 59.3405 46.8167C59.0305 46.8197 58.7395 46.9657 58.5525 47.2127C58.3005 47.5467 58.0035 47.8187 57.6495 48.0417C53.7755 49.6217 47.9765 48.7477 44.8535 48.2787C43.6975 48.1037 43.0205 48.0067 42.5615 48.0067C42.4165 48.0067 42.2935 48.0167 42.1845 48.0357C40.7935 48.2907 40.5685 47.9217 40.5025 47.8617C40.5045 47.8217 40.5365 47.7017 40.5615 47.6147C40.6325 47.3527 40.7315 46.9957 40.7085 46.5587C40.7055 46.4527 40.7175 46.1067 40.7315 45.5817C40.8145 42.7117 41.0235 35.4347 40.4195 31.3917C42.4405 30.6767 45.1485 29.2997 46.7765 28.4347C46.8595 28.5037 46.9535 28.5607 47.0545 28.5997C51.5055 30.3457 58.6645 38.9297 59.1975 44.3257C59.2275 44.6347 59.3995 44.9117 59.6625 45.0757C60.3785 45.5247 61.2465 45.5177 62.1045 45.0527C63.5365 44.2817 64.6865 42.3757 64.7255 40.7127C64.7535 39.4727 64.1985 38.4457 63.1625 37.8247C61.5985 36.8847 61.4765 36.6847 61.0225 35.9387C60.6215 35.2807 60.6395 33.5627 61.3655 31.8307C61.9705 30.3877 62.8875 29.3947 63.8185 29.1767C64.2945 29.0667 64.5125 29.1427 64.5345 29.1557C64.5545 29.2057 64.5125 29.4277 64.2485 29.5737C62.4245 30.6577 61.3365 32.2517 61.2665 33.9457C61.2085 35.3107 61.8365 36.5647 62.9875 37.3867C64.0495 38.1457 64.6335 38.5647 65.0365 40.0417C65.5545 41.9367 63.9165 45.5687 60.3485 46.7037ZM27.5905 22.7767C28.2325 22.4767 28.6795 21.8497 28.6795 21.1177C28.6795 20.4887 28.3505 19.9347 27.8505 19.5997C27.9475 19.1397 28.1655 18.5707 28.5525 18.4317C28.7445 18.3637 29.1135 18.2667 29.5795 18.1427C31.9815 17.4997 34.4155 16.7857 35.4695 15.7287C36.6125 14.5717 37.4785 10.8957 36.3205 9.31466C35.3665 8.00866 32.1445 7.89066 30.2525 7.93366C29.7335 6.89966 28.8665 5.36767 28.0745 4.88167C27.3105 4.41267 25.9425 4.28066 24.9615 4.24966C24.9585 2.51466 24.6495 0.395664 23.2125 0.0466641C22.8955 -0.0293359 22.4035 -0.0513364 21.8475 0.290664C20.0985 1.36466 18.1175 6.49466 15.9545 15.5097C15.6945 15.5587 15.4535 15.6567 15.2385 15.7887C15.0835 15.8547 14.9535 15.9617 14.8495 16.1007C14.4995 16.4577 14.2815 16.9347 14.2815 17.4627C14.2815 17.7237 14.3375 17.9717 14.4325 18.2007C12.5275 23.1447 7.42149 36.9577 6.83949 44.4227C5.22549 42.5027 4.38949 39.9357 3.79749 38.1207C3.23849 36.4047 2.93049 35.4597 1.95149 35.3957C1.38449 35.3597 0.897487 35.7067 0.551487 36.4337C-0.770513 39.1997 0.404486 45.3487 2.79649 48.1837C4.37049 50.0487 7.09449 50.6747 8.89649 50.1897C10.0655 50.8917 11.5495 51.1497 13.1875 51.1497C15.5845 51.1497 18.3075 50.5977 20.8405 50.0857C23.0145 49.6457 25.2665 49.1917 26.2265 49.3997C27.7775 49.7367 28.9365 49.5497 29.6705 48.8417C30.5045 48.0387 30.4025 46.9427 30.3655 46.6897L27.5905 22.7767ZM22.6995 2.14666C22.8965 2.71466 23.0045 4.00866 22.9305 5.19066C22.9125 5.47266 23.0165 5.74966 23.2135 5.95166C23.4105 6.15366 23.6835 6.27766 23.9665 6.25266C25.1125 6.20966 26.6125 6.33366 27.0235 6.58666C27.3385 6.80266 28.1355 8.10867 28.7295 9.38167C28.9015 9.74967 29.2815 9.97866 29.6865 9.95866C31.9105 9.84366 34.2965 10.1047 34.7105 10.5057C35.1245 11.0957 34.6745 13.6877 34.0485 14.3217C33.2905 15.0817 30.4345 15.8447 29.0625 16.2117C28.5225 16.3567 28.0955 16.4727 27.8755 16.5517C26.6495 16.9897 26.1445 18.1467 25.9355 18.9857C23.5875 18.4157 20.3235 17.1967 18.0175 16.2817C17.9695 16.2197 17.9195 16.1597 17.8645 16.1037C20.1435 6.58566 21.9025 2.95166 22.6995 2.14666ZM28.2765 47.4067C28.2185 47.4597 27.8655 47.7127 26.6475 47.4467C25.2765 47.1507 23.1425 47.5797 20.4405 48.1277C16.5585 48.9147 11.7295 49.8927 9.64749 48.2897C9.46849 48.1517 9.25349 48.0817 9.03749 48.0817C8.89449 48.0817 8.75149 48.1117 8.61649 48.1747C7.80249 48.5527 5.55349 48.3567 4.32249 46.8977C2.80149 45.0957 1.92749 41.5117 2.00849 39.0947C2.77849 41.4417 4.05949 45.0607 6.84949 47.2047L7.19349 47.4907C7.50749 47.7537 7.95049 47.7967 8.30649 47.6027C8.66549 47.4097 8.87149 47.0177 8.82749 46.6127C8.30849 41.9177 12.3405 29.2597 16.0915 19.4567C19.0435 20.4367 23.6125 21.9297 25.5535 22.5637L28.3795 46.9397C28.3795 46.9457 28.3845 46.9747 28.3855 46.9797C28.3835 46.9827 28.4165 47.2777 28.2765 47.4067Z" fill="white"/>
</svg>
