<svg width="54" height="42" viewBox="0 0 54 42" fill="none" xmlns="http://www.w3.org/2000/svg">
<path d="M20.1646 14.0479C23.683 13.5331 25.8486 10.2231 25.0017 6.6548C24.1549 3.08652 20.6162 0.611187 17.0979 1.12598C13.5796 1.64078 11.4139 4.95076 12.2608 8.51904C13.1076 12.0873 16.6463 14.5626 20.1646 14.0479Z" fill="white"/>
<path d="M11.215 24.1053C14.2886 23.2742 15.6781 20.0877 14.3186 16.988C12.9592 13.8883 9.36548 12.0493 6.2919 12.8803C3.21832 13.7114 1.82875 16.8979 3.18822 19.9976C4.54769 23.0973 8.14139 24.9364 11.215 24.1053Z" fill="white"/>
<path d="M41.7587 8.53017C42.6056 4.9619 40.44 1.65191 36.9216 1.13712C33.4033 0.62232 29.8646 3.09765 29.0178 6.66593C28.1709 10.2342 30.3365 13.5442 33.8549 14.059C37.3732 14.5738 40.9119 12.0984 41.7587 8.53017Z" fill="white"/>
<path d="M50.8121 19.9626C52.1716 16.8629 50.782 13.6764 47.7084 12.8454C44.6349 12.0143 41.0412 13.8534 39.6817 16.953C38.3222 20.0527 39.7118 23.2393 42.7854 24.0703C45.8589 24.9014 49.4526 23.0623 50.8121 19.9626Z" fill="white"/>
<path d="M44.172 28.7048L39.636 26.6272C36.774 25.3128 34.56 23.2776 33.372 20.8184L31.536 16.96C30.834 15.476 28.998 14.5008 27 14.5008C25.002 14.5008 23.166 15.476 22.464 16.96L20.628 20.8184C19.44 23.2776 17.226 25.3128 14.364 26.6272L9.82799 28.7048C8.09999 29.5104 7.01999 30.9944 7.01999 32.6056C7.01999 35.5312 10.53 41.976 14.148 41.2552V41.2976C22.572 39.644 31.428 39.6016 39.852 41.2552C43.47 42.0184 46.98 35.5736 46.98 32.6056C46.98 30.9944 45.9 29.5104 44.172 28.7048Z" fill="white"/>
</svg>
